HIERARCHY
ROOT hip
{
	OFFSET 0.000000 0.000000 0.000000 
	CHANNELS 6 Xposition Yposition Zposition Xrotation Zrotation Yrotation
	JOINT abdomen
	{
		OFFSET 0.000000 3.402643 0.000000 
		CHANNELS 3 Xrotation Zrotation Yrotation
		JOINT chest
		{
			OFFSET 0.000000 8.438565 -0.680529 
			CHANNELS 3 Xrotation Zrotation Yrotation
			JOINT neck
			{
				OFFSET 0.000000 10.207942 -0.272212 
				CHANNELS 3 Xrotation Zrotation Yrotation
				JOINT head
				{
					OFFSET 0.000000 3.130431 0.000000 
					CHANNELS 3 Xrotation Zrotation Yrotation
					End Site
					{
						OFFSET 0.000000 3.130435 0.000000 
					}
				}
			}
			JOINT lCollar
			{
				OFFSET 3.470700 6.669187 -0.816635 
				CHANNELS 3 Yrotation Zrotation Xrotation
				JOINT lShldr
				{
					OFFSET 3.198488 0.000000 0.000000 
					CHANNELS 3 Zrotation Yrotation Xrotation
					JOINT lForeArm
					{
						OFFSET 10.139888 0.000000 0.000000 
						CHANNELS 3 Yrotation Zrotation Xrotation
						JOINT lHand
						{
							OFFSET 8.370511 0.000000 0.000000 
							CHANNELS 3 Zrotation Yrotation Xrotation
							End Site
							{
								OFFSET 4.083176 0.000000 0.000000 
							}
						}
					}
				}
			}
			JOINT rCollar
			{
				OFFSET -3.470700 6.669187 -0.816635 
				CHANNELS 3 Yrotation Zrotation Xrotation
				JOINT rShldr
				{
					OFFSET -3.198488 0.000000 0.000000 
					CHANNELS 3 Zrotation Yrotation Xrotation
					JOINT rForeArm
					{
						OFFSET -10.139888 0.000000 0.000000 
						CHANNELS 3 Yrotation Zrotation Xrotation
						JOINT rHand
						{
							OFFSET -8.370511 0.000000 0.000000 
							CHANNELS 3 Zrotation Yrotation Xrotation
							End Site
							{
								OFFSET -4.083176 0.000000 0.000000 
							}
						}
					}
				}
			}
		}
	}
	JOINT lThigh
	{
		OFFSET 5.308129 -1.633274 1.361059 
		CHANNELS 3 Xrotation Zrotation Yrotation
		JOINT lShin
		{
			OFFSET -2.041588 -20.007561 0.000000 
			CHANNELS 3 Xrotation Zrotation Yrotation
			JOINT lFoot
			{
				OFFSET 0.000000 -19.190928 -1.224953 
				CHANNELS 3 Xrotation Yrotation Zrotation
				End Site
				{
					OFFSET 0.000000 -2.449906 4.627600 
				}
			}
		}
	}
	JOINT rThigh
	{
		OFFSET -5.308129 -1.633274 1.361059 
		CHANNELS 3 Xrotation Zrotation Yrotation
		JOINT rShin
		{
			OFFSET 2.041588 -20.007561 0.000000 
			CHANNELS 3 Xrotation Zrotation Yrotation
			JOINT rFoot
			{
				OFFSET 0.000000 -19.190928 -1.224953 
				CHANNELS 3 Xrotation Yrotation Zrotation
				End Site
				{
					OFFSET 0.000000 -2.449906 4.627600 
				}
			}
		}
	}
}
MOTION
Frames: 8
Frame Time: 0.033333
28.295509 43.473171 37.627972 -4.333351 -5.063684 -52.527592 -25.458981 0.000000 -0.009766 38.491268 3.492449 -0.894477 4.051032 -12.713296 26.446894 -14.396941 4.586607 22.274612 -5.671430 -15.136075 11.997336 -54.087631 -35.943981 24.307575 -68.634361 4.110580 -24.747713 12.867352 -31.413399 -4.019193 16.636856 7.491634 21.857010 66.513130 58.045269 53.982624 28.768545 -5.900867 -36.898335 -29.391489 47.551411 -15.059735 -24.256615 18.065344 6.981379 28.226177 1.996341 6.755682 5.519559 -0.572693 -13.286426 -8.426793 -17.759033 -10.871300 47.945717 4.568886 -17.209959 -23.974949 -3.816518 14.637432 
28.324682 43.461781 37.620808 -4.255766 -5.190805 -52.212620 -25.458981 0.000000 -0.009766 38.619549 3.722702 -0.739367 4.154207 -12.725883 26.379379 -14.622260 4.584424 22.168764 -5.530859 -15.161835 11.980145 -54.060078 -35.974758 24.771090 -68.830437 4.138736 -23.333475 14.426807 -30.781975 -4.849324 16.233471 7.079486 21.528667 67.250519 57.587551 54.360008 29.169266 -5.798536 -36.379494 -30.451624 47.087360 -15.516787 -24.516054 17.983320 6.958069 28.395515 2.225332 6.289303 5.396970 -0.508167 -13.251084 -8.357146 -17.531052 -10.878226 47.928120 4.550244 -17.473324 -24.295420 -3.979845 14.811149 
28.344168 43.496361 37.649529 -4.266849 -5.375772 -51.924580 -25.458981 0.000000 -0.009766 38.918022 4.081521 -0.660960 4.653693 -13.103550 26.385971 -15.287788 4.519494 22.211445 -5.384605 -15.208268 11.865969 -54.687210 -35.398663 25.120754 -68.916306 3.958540 -22.923580 15.263871 -31.309772 -4.882444 15.944503 6.468428 21.355627 68.464111 57.030724 55.681347 29.404783 -5.539953 -35.642078 -33.833771 46.348515 -17.211128 -24.263332 17.691433 7.065565 28.034727 2.645222 6.024162 5.483465 -0.502282 -13.265574 -7.900263 -17.107670 -11.136798 47.489475 4.120921 -17.454081 -24.489952 -4.100566 14.952473 
28.418253 43.641197 37.641922 -3.853027 -5.076451 -51.690281 -25.458981 0.000000 -0.009766 38.907104 4.481580 -0.571545 4.034584 -13.913597 26.628824 -15.656654 5.057002 21.988468 -5.076676 -14.526069 11.307409 -56.048027 -33.825104 26.361135 -69.115234 3.373094 -23.636312 15.437906 -32.342838 -4.857804 15.995922 5.605672 21.425198 68.489876 55.904461 55.401241 30.448959 -5.563624 -35.038292 -33.041615 46.247101 -16.539902 -24.186529 17.184916 7.188278 26.653465 3.104231 6.070535 6.088655 -0.687857 -13.162624 -8.104137 -16.187065 -10.176019 46.522125 3.869194 -18.229506 -24.504541 -4.356142 15.344592 
28.477491 43.812069 37.530941 -3.008258 -4.720078 -51.480782 -25.458981 0.000000 -0.009766 39.320724 4.734316 -0.145686 1.659246 -13.381458 26.940605 -15.867528 4.667737 22.036222 -4.902764 -13.942910 10.445380 -57.101509 -31.888073 28.638929 -68.914406 1.981669 -27.484024 14.109904 -34.107586 -3.561074 16.143950 4.913038 21.186737 67.684433 53.728626 54.727077 32.028160 -5.198945 -34.182178 -31.314875 46.101292 -15.445940 -24.301512 16.938808 7.906917 24.711699 3.969303 6.045662 7.214228 -1.039033 -13.082642 -9.177251 -13.715895 -7.362132 45.751682 3.310515 -20.054779 -24.825087 -5.060851 15.268367 
28.474722 43.963821 37.298672 -1.831176 -4.236125 -50.909985 -25.458981 0.000000 -0.009766 39.741241 4.913200 0.277019 -2.253880 -12.382143 27.322989 -18.015715 4.812003 21.976671 -5.522001 -14.211785 11.205848 -57.427204 -30.611010 30.716743 -65.965012 1.588591 -30.061073 13.869373 -37.699867 -4.397480 17.058397 5.036961 21.678356 68.059586 52.624260 56.028011 27.976194 -3.796828 -35.305332 -31.570286 48.717300 -16.983814 -24.925312 16.615583 7.923468 22.562792 5.320721 5.170718 8.439766 -0.937194 -13.660081 -10.710169 -9.567775 -1.766911 44.823551 2.939213 -18.132580 -26.024738 -7.287971 13.409360 
28.356209 43.854790 36.983292 -1.477482 -3.573034 -49.546753 -25.458981 0.000000 -0.009766 40.280670 4.083446 -0.118272 -7.738515 -9.814655 26.738119 -19.909853 4.942464 21.577864 -6.546104 -14.843835 12.771890 -57.799103 -31.546612 33.714382 -59.027504 2.661229 -36.159473 11.891074 -40.375767 -3.885337 19.082624 6.779358 22.614010 69.895416 54.111835 59.466152 17.448309 -0.976583 -38.119850 -33.015915 50.817802 -20.444668 -26.699726 15.986860 5.851288 22.752274 5.525213 5.551492 8.879909 -1.098346 -14.159637 -12.355352 -5.700439 5.242484 46.063904 2.912546 -19.130659 -27.569019 -7.472897 13.164883 
28.040867 43.443882 36.603912 -2.181814 -3.503324 -45.872723 -25.458981 0.000000 -0.009766 41.051476 4.133296 -0.319520 -12.392106 -7.937481 24.705164 -20.600969 4.139173 20.918961 -7.615738 -16.026365 14.686655 -58.125435 -37.282108 39.041260 -48.486549 3.787173 -48.654335 11.572171 -40.520138 -4.034795 22.012012 8.771749 24.612473 68.272484 56.965866 60.332455 8.456943 1.532470 -43.808617 -30.580881 49.104362 -20.838017 -29.300034 15.035172 3.927994 25.238640 5.047199 4.217928 8.391088 -1.626756 -13.914837 -12.946734 -5.936616 5.572881 49.283566 4.560577 -22.065706 -29.226160 -5.450551 14.028083 
